<svg preserveAspectRatio="none" width="100%" height="100%" overflow="visible" style="display: block;" viewBox="0 0 16 20" fill="none" xmlns="http://www.w3.org/2000/svg">
<g id="Frame 1000005169">
<path id="Union" d="M12.1719 14.8281L14 15.5L12.1719 16.1719L11.5 18L10.8281 16.1719L9 15.5L10.8281 14.8281L11.5 13L12.1719 14.8281ZM10.6611 3.00488C10.7625 2.99061 10.8664 3.00923 10.9551 3.05859V3.05957C11.044 3.10921 11.1129 3.18712 11.1504 3.2793C11.1878 3.37138 11.1924 3.47291 11.1621 3.56738L9.52441 8.6875H12.5449C12.6337 8.68747 12.7207 8.71284 12.7949 8.75977C12.869 8.80663 12.9277 8.87288 12.9629 8.95117C12.9981 9.02961 13.0085 9.11702 12.9932 9.20117C12.9777 9.28518 12.9368 9.36272 12.876 9.4248L5.60352 16.8623C5.53316 16.9342 5.43947 16.9809 5.33789 16.9951C5.23629 17.0093 5.13268 16.9901 5.04395 16.9404C4.95529 16.8907 4.88696 16.8136 4.84961 16.7217C4.81228 16.6297 4.80767 16.528 4.83789 16.4336L6.47559 11.3125H3.45508C3.3663 11.3125 3.27927 11.2872 3.20508 11.2402C3.131 11.1934 3.07231 11.1271 3.03711 11.0488C3.00192 10.9704 2.99145 10.883 3.00684 10.7988C3.02225 10.7148 3.06324 10.6373 3.12402 10.5752L10.3965 3.1377C10.4666 3.06596 10.5599 3.01925 10.6611 3.00488ZM5.17188 3.82812L7 4.5L5.17188 5.17188L4.5 7L3.82812 5.17188L2 4.5L3.82812 3.82812L4.5 2L5.17188 3.82812Z" fill="url(#paint0_radial_0_4)"/>
</g>
<defs>
<radialGradient id="paint0_radial_0_4" cx="0" cy="0" r="1" gradientUnits="userSpaceOnUse" gradientTransform="translate(9.20666 2.36892e-06) rotate(90) scale(20 15.2619)">
<stop stop-color="#AE35F7"/>
<stop offset="1" stop-color="#5F30D1"/>
</radialGradient>
</defs>
</svg>
